<?xml version="1.0" standalone="no"?>
<!DOCTYPE svg PUBLIC "-//W3C//DTD SVG 20010904//EN"
 "http://www.w3.org/TR/2001/REC-SVG-20010904/DTD/svg10.dtd">
<svg version="1.0" xmlns="http://www.w3.org/2000/svg"
 width="512.000000pt" height="512.000000pt" viewBox="0 0 512.000000 512.000000"
 preserveAspectRatio="xMidYMid meet">
<metadata>
Created by potrace 1.11, written by Peter Selinger 2001-2013
</metadata>
<g transform="translate(0.000000,512.000000) scale(0.100000,-0.100000)"
fill="#000000" stroke="none">
<path d="M354 3638 c13 -35 101 -268 195 -518 95 -249 177 -462 182 -472 9
-17 24 -18 185 -16 l176 3 197 530 197 530 -164 3 c-91 1 -166 1 -168 -1 -2
-2 -55 -171 -119 -377 -64 -206 -117 -375 -119 -377 -1 -1 -56 168 -121 377
l-119 380 -173 0 -173 0 24 -62z"/>
<path d="M1592 3168 l3 -533 448 -3 447 -2 0 125 0 125 -285 0 -286 0 3 103 3
102 258 3 257 2 0 105 0 105 -257 2 -258 3 -3 83 -3 82 281 0 280 0 0 115 0
115 -445 0 -445 0 2 -532z"/>
<path d="M2680 3165 l0 -535 163 2 162 3 3 218 c2 164 5 217 15 217 36 0 89
-24 110 -50 14 -16 69 -110 123 -209 l98 -181 183 0 c101 0 183 3 183 7 0 3
-38 80 -85 171 -94 182 -144 249 -204 277 l-41 18 57 23 c76 31 120 69 157
134 28 50 31 63 31 145 0 101 -17 145 -77 205 -77 78 -153 90 -560 90 l-318 0
0 -535z m593 287 c32 -31 41 -65 27 -108 -18 -52 -56 -67 -182 -72 l-108 -4 0
107 0 107 119 -4 c109 -3 122 -5 144 -26z"/>
<path d="M3636 3688 c4 -7 96 -143 203 -303 l196 -290 5 -230 5 -230 163 -3
162 -2 0 222 0 222 211 313 210 313 -183 0 -183 0 -105 -175 c-58 -96 -108
-175 -111 -175 -3 0 -53 79 -110 175 l-103 175 -184 0 c-144 0 -182 -3 -176
-12z"/>
<path d="M835 2409 c-189 -18 -320 -115 -386 -287 -31 -80 -38 -260 -14 -351
60 -231 218 -341 489 -341 163 0 285 36 419 122 l47 30 0 204 0 204 -230 0
-230 0 0 -100 0 -100 100 0 100 0 0 -46 0 -45 -57 -27 c-79 -36 -173 -42 -235
-14 -50 22 -89 67 -109 127 -19 59 -17 219 5 282 19 57 78 119 121 128 14 3
36 7 50 10 60 13 148 -31 181 -90 10 -18 13 -18 147 5 109 18 137 27 137 39
-1 51 -79 161 -144 201 -70 43 -239 64 -391 49z"/>
<path d="M1945 2408 c-132 -11 -221 -52 -298 -138 -80 -89 -117 -196 -117
-341 0 -110 13 -179 49 -254 82 -173 239 -252 481 -242 169 7 278 54 358 156
109 137 134 405 53 576 -86 186 -260 266 -526 243z m152 -229 c81 -30 123
-116 123 -250 0 -114 -16 -174 -57 -220 -82 -91 -243 -74 -302 32 -47 84 -48
267 -1 359 38 75 150 112 237 79z"/>
<path d="M3060 2409 c-262 -22 -420 -204 -420 -484 0 -266 139 -446 373 -486
97 -16 255 -6 332 20 118 41 215 140 255 260 28 83 38 245 21 332 -32 163
-132 281 -281 334 -59 21 -186 32 -280 24z m167 -240 c82 -40 116 -142 102
-309 -13 -156 -93 -227 -234 -205 -64 9 -120 60 -140 128 -19 65 -19 209 0
273 15 52 61 105 105 123 43 17 121 13 167 -10z"/>
<path d="M3770 1926 l0 -476 260 0 c273 0 334 7 410 45 59 30 135 112 166 180
36 78 51 213 36 331 -20 157 -67 251 -159 318 -89 65 -116 69 -430 74 l-283 4
0 -476z m480 232 c24 -13 52 -34 62 -48 44 -61 50 -288 10 -366 -29 -57 -67
-74 -172 -81 l-90 -6 0 262 0 261 73 0 c56 0 83 -5 117 -22z"/>
</g>
</svg>
